# xmcd
#
# Track frame offsets:
#	150
#	10067
#	20177
#	30255
#	43225
#	56572
#	68205
#	79222
#	91167
#	102037
#
# Disc length: 1515 seconds
#
# Revision: 0
# Processed by: cddbd v1.4PL0 Copyright (c) Steve Scherf et al.
# Submitted via: dBpowerAMP V4.0
#
DISCID=7505e90a
DTITLE=Eddy Arnold - Vintage Hits
DYEAR=1900
DGENRE=
TTITLE0=I Wanna Play House With You
TTITLE1=There's Been A Change In Me
TTITLE2=Somebody's Been Beatin' My Time
TTITLE3=Take Me In Your Arms And Hold Me
TTITLE4=Why Should I Cry
TTITLE5=Kentucky Waltz
TTITLE6=The Lovebug Itch
TTITLE7=Mama And Daddy Broke My Heart
TTITLE8=Cuddle Buggin' Baby
TTITLE9=Easy On The Eyes
EXTD=
EXTT0=
EXTT1=
EXTT2=
EXTT3=
EXTT4=
EXTT5=
EXTT6=
EXTT7=
EXTT8=
EXTT9=
PLAYORDER=
